<mxfile host="app.diagrams.net" modified="2021-07-20T16:36:17.572Z" agent="5.0 (X11; Linux x86_64) AppleWebKit/537.36 (KHTML, like Gecko) Chrome/89.0.4389.90 Safari/537.36" etag="z1GY6EXasVJHlTBg38CA" version="14.9.0" type="github">
  <diagram id="NHRuNwJ-pm_h_ZCu1pSr" name="Page-1">
    <mxGraphModel dx="1119" dy="1813" grid="1" gridSize="10" guides="1" tooltips="1" connect="1" arrows="1" fold="1" page="1" pageScale="1" pageWidth="827" pageHeight="1169" math="0" shadow="0">
      <root>
        <mxCell id="0" />
        <mxCell id="1" parent="0" />
        <mxCell id="5bO8Cuixb7cpYG97UHFh-24" value="" style="ellipse;whiteSpace=wrap;html=1;aspect=fixed;" vertex="1" parent="1">
          <mxGeometry x="80" y="90" width="30" height="30" as="geometry" />
        </mxCell>
        <mxCell id="5bO8Cuixb7cpYG97UHFh-25" value="" style="ellipse;whiteSpace=wrap;html=1;aspect=fixed;" vertex="1" parent="1">
          <mxGeometry x="80" y="140" width="30" height="30" as="geometry" />
        </mxCell>
        <mxCell id="5bO8Cuixb7cpYG97UHFh-26" value="" style="ellipse;whiteSpace=wrap;html=1;aspect=fixed;" vertex="1" parent="1">
          <mxGeometry x="80" y="190" width="30" height="30" as="geometry" />
        </mxCell>
        <mxCell id="5bO8Cuixb7cpYG97UHFh-27" value="" style="ellipse;whiteSpace=wrap;html=1;aspect=fixed;" vertex="1" parent="1">
          <mxGeometry x="80" y="240" width="30" height="30" as="geometry" />
        </mxCell>
        <mxCell id="5bO8Cuixb7cpYG97UHFh-28" value="&lt;h1&gt;How many seconds did you sample&lt;/h1&gt;" style="text;html=1;strokeColor=none;fillColor=none;spacing=5;spacingTop=-20;whiteSpace=wrap;overflow=hidden;rounded=0;" vertex="1" parent="1">
          <mxGeometry x="120" y="-20" width="320" height="70" as="geometry" />
        </mxCell>
        <mxCell id="5bO8Cuixb7cpYG97UHFh-29" value="&lt;font style=&quot;font-size: 18px&quot;&gt;&amp;lt; 5s&lt;/font&gt;" style="text;html=1;strokeColor=none;fillColor=none;align=center;verticalAlign=middle;whiteSpace=wrap;rounded=0;" vertex="1" parent="1">
          <mxGeometry x="140" y="95" width="40" height="20" as="geometry" />
        </mxCell>
        <mxCell id="5bO8Cuixb7cpYG97UHFh-30" value="&lt;font style=&quot;font-size: 18px&quot;&gt;6 - 20s&lt;/font&gt;" style="text;html=1;strokeColor=none;fillColor=none;align=center;verticalAlign=middle;whiteSpace=wrap;rounded=0;" vertex="1" parent="1">
          <mxGeometry x="140" y="145" width="70" height="20" as="geometry" />
        </mxCell>
      </root>
    </mxGraphModel>
  </diagram>
</mxfile>
